<svg width="4905" height="721" viewBox="0 0 4905 721" fill="none" xmlns="http://www.w3.org/2000/svg">
<path d="M650.275 11.3268L650.638 11.3089C683.106 9.77516 720.162 15.795 744.35 39.7668C799.345 98.4413 805.499 204.994 809.22 281.988C810.398 360.01 812.582 439.6 801.725 517.035C790.494 597.144 769.211 693.222 672.201 697.596C671.789 697.62 671.376 697.639 670.964 697.656C636.687 699.095 603.894 692.699 577.991 668.697C528.811 623.124 517.07 506.001 514.548 441.916C510.668 343.344 504.706 118.527 573.012 45.1715C592.67 24.0609 621.751 12.4212 650.275 11.3268ZM671.122 595.383C686.809 588.058 695.145 578.834 701.146 562.384C723.678 500.63 720.114 262.601 710.794 191.765C708.468 174.089 705.21 155.165 697.601 138.894C692.672 128.353 684.452 119.586 673.327 115.634C666.761 113.301 660.822 113.317 653.986 114.156C640.949 118.366 631.924 124.798 625.571 137.184C597.11 192.67 599.434 495.453 620.609 560.181C624.699 572.684 631.329 585.566 643.586 591.743C652.564 596.267 661.409 595.938 671.122 595.383Z" fill="black"/>
<path d="M2780.45 279.257C2833.39 280.162 2889.15 279.334 2942.37 279.338L3248.77 279.259C3248.6 307.054 3248.64 334.85 3248.86 362.644L3068.34 362.564C3067.6 377.651 3068.13 397.456 3068.14 412.895C3120.37 411.752 3177.3 412.71 3229.7 412.843C3228.89 433.356 3229.48 457.73 3229.48 478.478L3229.6 599.471L2898.16 599.533L2898.52 633.967C2931.28 635.642 2977.27 634.199 3010.84 634.197L3233.3 634.163C3232.45 655.068 3233.1 680.333 3233.09 701.571C3233.26 705.421 3233.54 707.231 3231.96 710.83C3229.29 712.998 3191.76 712.028 3185.74 712.028L3092.89 712.022L2799.33 712.128C2798.04 691.28 2798.96 660.859 2798.97 639.441C2798.98 600.964 2798.48 561.622 2799.21 523.264L3130.57 523.228L3130.56 489.747L2901.29 489.786L2841.66 489.778C2829.71 489.774 2811.12 490.339 2799.97 488.275C2796.51 482.18 2797.93 424.369 2797.69 413.034C2815.1 412.102 2838.21 412.754 2856.22 412.757L2962.72 412.681C2962.91 396.063 2962.89 379.443 2962.63 362.827C2943.59 361.853 2918 362.567 2898.68 362.576L2780.02 362.656C2780.1 337.205 2779.02 303.808 2780.45 279.257Z" fill="black"/>
<path d="M24.0911 20.7527C59.1667 22.2649 103.78 21.0047 139.435 21.0035L360.074 20.9637C390.745 20.9461 428.184 19.9726 458.393 21.3256C460.256 43.7343 458.599 88.2024 458.925 112.981C423.222 114.076 382.485 113.107 346.441 113.112L127.66 113.165C128.642 136.861 127.89 165.905 127.988 190.113C237.75 191.405 348.78 189.496 458.776 190.252L458.774 279.83C440.306 280.774 417.382 280.165 398.658 280.167L290.812 280.159C291.204 291.151 290.97 303.569 291.014 314.673C291.02 326.645 290.957 338.616 290.824 350.587L472.257 350.605C472.277 382.282 472.858 415.907 471.935 447.434C450.837 447.152 429.289 447.109 408.172 447.35C273.699 448.882 138.348 445.191 3.96253 447.577C2.64687 417.896 3.66928 380.681 3.67419 350.537C64.0621 349.818 125.904 350.633 186.454 350.497C186.289 327.099 186.315 303.7 186.532 280.301C134.747 278.661 74.8992 280.155 22.4713 280.165C22.5152 249.677 20.5431 29.0458 24.0911 20.7527Z" fill="black"/>
<path d="M3937.83 20.8127C3970.61 22.0897 4011.2 20.9852 4044.86 20.9821L4252.99 20.9623L4325.48 20.9573C4335.79 20.9567 4356.79 20.4038 4365.95 21.8751C4369.16 38.4461 4369.04 275.689 4366.17 282.468C4355.63 283.335 4332.37 282.611 4321.19 282.613H4228.48L3936.24 282.671C3934.34 246.701 3937.14 198.4 3936.03 162.096C3935.57 147.139 3934.88 26.4107 3937.83 20.8127ZM4040.54 191.767L4263.42 191.766C4265.67 183.624 4264.16 124.936 4264.52 112.668L4116.64 112.696C4092.72 112.701 4064.5 111.999 4040.9 112.798C4039.13 120.631 4039.61 181.136 4040.54 191.767Z" fill="black"/>
<path d="M4644.65 421.346C4743.76 417.843 4869.18 441.664 4870.91 564.657C4872.64 685.953 4776.22 713.474 4674.25 717.674C4670.4 717.867 4666.54 718.014 4662.69 718.113C4561.19 720.627 4445.44 694.288 4443.86 572.186C4442.32 453.498 4545.4 423.318 4644.65 421.346ZM4693.21 623.831C4714.79 622.353 4739.83 617.954 4754.81 600.742C4763.29 591.033 4767.46 578.306 4766.38 565.466C4765.45 553.001 4759.52 541.441 4749.96 533.399C4722.29 509.808 4654.44 512.517 4619.08 514.831C4596.7 518.713 4571.15 521.644 4557.06 541.792C4549.6 552.438 4547 565.908 4549.29 578.643C4551.4 590.925 4558.4 601.829 4568.68 608.86C4595.09 627.086 4662.71 628.838 4693.21 623.831Z" fill="black"/>
<path d="M3444.02 13.6911C3477.34 12.0826 3521.62 22.699 3547.42 45.8644C3619.84 110.916 3618.56 281.966 3559.88 354.805C3533.87 387.098 3492.98 396.226 3453.91 399.234C3343.22 401.801 3297.58 333.245 3292.9 228.988C3289.74 158.835 3297.76 72.201 3365.13 32.7068C3390.64 17.7527 3415.29 15.506 3444.02 13.6911ZM3453.01 302.337C3468.41 299.564 3485.72 295.533 3494.33 280.931C3512.62 249.993 3511.76 202.382 3506.98 168.185C3501.63 129.996 3480.8 108.771 3441.49 110.752C3430.57 112.648 3416.66 115.193 3408.43 123.125C3386.37 144.414 3383.22 181.918 3384.06 210.974C3385.48 259.932 3394.15 303.348 3453.01 302.337Z" fill="black"/>
<path d="M2796.97 20.9342C2815.9 21.2044 2835.21 21.1553 2854.16 20.9798C2981.29 19.8031 3108.98 22.661 3236.05 20.7651C3237.31 44.6393 3236.24 82.3049 3236.25 107.117C3218.32 106.314 3195.81 106.889 3177.56 106.883L3068.86 106.742C3068.25 131.175 3065.88 148.544 3090.57 160.097C3113.26 170.717 3222.01 158.296 3235.12 166.228C3239.55 172.506 3237.72 237.413 3237.69 249.848C3214.98 250.595 3188.34 249.919 3165.31 249.928C3131.47 249.895 3078.98 255.22 3052.05 234.113C3034.85 220.625 3032.68 203.499 3030.25 183.623L2999.06 183.467C2994.83 256.348 2937.88 249.93 2882.86 249.973L2791.31 249.976C2792.04 221.863 2791.22 192.487 2791.66 164.062C2818.38 164.114 2918.7 167.299 2935.98 161.472C2945.89 158.129 2954.06 152.365 2958.72 142.666C2962.1 135.616 2963.14 117.55 2960.48 110.325C2959.8 108.464 2958.71 107.672 2956.76 107.243C2947.31 105.156 2934.94 106.65 2925.2 106.696C2903.12 106.8 2805.97 110.043 2794.56 104.781C2791.46 100.852 2793 35.9803 2793.63 24.3019C2793.69 23.0653 2795.8 21.8336 2796.97 20.9342Z" fill="black"/>
<path d="M1157.59 20.884C1229.43 22.4478 1303.78 19.8095 1375.82 20.9425C1403.19 21.3727 1432.1 20.1544 1459.32 21.3414C1460.85 44.7671 1459.93 95.2151 1459.26 119.724C1439.87 121.083 1408.02 120.076 1387.92 120.076L1253.91 119.92L1254.17 295.451C1284.32 294.07 1324.31 295.204 1355.19 295.203C1387.45 295.172 1428.02 294.089 1459.59 295.597L1459.38 392.561C1427.16 394.552 1375.09 393.068 1341.26 392.954C1279.84 392.749 1216.04 393.983 1154.89 392.755C1153.72 377.362 1154.53 350.764 1154.52 334.742L1154.51 223.022L1154.52 94.4572C1154.52 73.0978 1154.4 51.4207 1154.62 30.0513C1154.68 24.9343 1154.96 24.6167 1157.59 20.884Z" fill="black"/>
<path d="M4420.88 20.8375C4454.46 22.0075 4494.31 20.9972 4528.3 20.9993L4712.45 20.8157C4713.13 52.1123 4712.52 85.7449 4712.66 117.278C4680.09 117.43 4647.52 117.375 4614.95 117.112L4614.77 231.95C4614.95 272.29 4627.49 285.464 4667.89 284.424C4682.66 284.043 4699.11 284.334 4714.03 284.239C4713.85 316.947 4713.9 349.656 4714.16 382.364C4701.95 383.23 4640.02 383.654 4632.22 379.781C4591.73 369.722 4582.95 336.603 4580.69 300.045L4548.77 299.867C4547.33 393.083 4485.2 382.858 4416.33 382.539C4415.19 352.646 4416.25 314.942 4416.24 284.439C4438.46 284.129 4489.59 289.095 4504.57 273.623C4508.79 269.319 4511.77 263.944 4513.16 258.079C4516.87 242.265 4515.94 211.302 4515.92 194.093C4515.98 168.522 4515.9 142.95 4515.66 117.38C4485.36 116.406 4449.61 117.283 4418.9 117.261C4419.14 103.752 4417.21 27.2772 4420.88 20.8375Z" fill="black"/>
<path d="M1662.14 459.987L1767.19 460.09C1768.77 507.735 1767.3 563.795 1767.28 612.109L1993.85 612.075C2027.39 612.07 2064.64 611.269 2097.95 612.379C2098.91 625.309 2098.06 647.746 2098.29 661.307C2098.49 672.761 2098.98 701.69 2097.45 711.78C2084.27 712.697 2062.73 712.04 2049.09 712.041L1956.04 712.033L1662.31 712.136C1660.9 688.415 1662.02 650.672 1662.02 625.65L1662.14 459.987Z" fill="black"/>
<path d="M2409.19 224.661C2410.78 224.559 2412.39 224.475 2413.99 224.408C2456.21 222.645 2506.76 228.744 2539.54 258.292C2581.73 296.323 2582.68 383.481 2544.78 424.687C2520.08 451.53 2477.23 462.318 2441.77 463.671C2364.36 465.43 2284.11 450.751 2277.87 355.707C2271.98 265.944 2325.85 228.884 2409.19 224.661ZM2438.12 385.251C2466.79 381.56 2481.95 366.679 2478.57 336.398C2474.93 303.663 2439.63 299.763 2413.05 302.544C2399.32 303.684 2388.89 305.63 2379.48 316.712C2371.77 325.794 2369.53 338.459 2370.71 349.942C2374.48 386.775 2410.11 386.232 2438.12 385.251Z" fill="black"/>
<path d="M3919.53 331.416C3933.92 332.336 3957.37 331.639 3972.28 331.644L4073.85 331.648L4385.47 331.545C4387.05 359.504 4385.59 399.176 4385.9 428.479H4257.38L4215.93 428.543C4216.6 442.82 4217.45 546.267 4214 553.022C4207.2 556.084 4117.52 555.814 4112.99 553.206C4109.09 542.732 4110.77 445.19 4111.15 428.626C4090.24 427.908 4065.75 428.49 4044.43 428.488L3917.02 428.479C3917.51 413.755 3914.28 338.446 3919.53 331.416Z" fill="black"/>
<path d="M1663.62 16.0676C1697.13 17.1861 1732.91 15.6857 1766.98 16.4222C1769.69 60.2393 1765.83 113.463 1767.7 158.816C1809.27 157.918 1853.66 158.689 1895.41 158.681L2100.82 158.813C2100.42 172.774 2101.87 249.305 2099.62 256.696C2044.55 255.513 1984.86 256.583 1929.42 256.577L1662.16 256.742C1661.41 230.144 1660.32 22.9805 1663.62 16.0676Z" fill="black"/>
<path d="M22.756 483.086C56.774 483.913 93.4194 483.171 127.741 483.34C128.487 495.202 127.87 515.875 127.876 528.402C127.998 556.104 127.919 583.807 127.64 611.509L458.515 611.608C459.001 639.225 460.051 684.9 458.284 711.559C449.037 712.69 422.935 712.069 412.954 712.063L324.461 712.022L22.7392 712.052C22.2471 702.144 22.3912 691.213 22.5434 681.215C23.5455 615.423 21.0481 548.795 22.756 483.086Z" fill="black"/>
<path d="M3936.86 485.656C3968.18 485.924 4011.45 484.332 4041.39 486.264L4041.21 611.5C4150.44 611.475 4263.18 609.958 4372.12 611.684C4372.2 625.042 4373.44 703.472 4371.07 711.992C4326.4 712.774 4279.05 712.011 4234.11 712.011L3936.34 712.141C3935.42 697.937 3936.05 676.936 3936.05 662.354L3936.03 568.825C3936.03 558.334 3935.32 492.698 3936.86 485.656Z" fill="black"/>
<path d="M2317.39 511.221L2418.56 511.169C2420.23 544.42 2418.58 583.339 2419.12 617.482C2450.64 619.041 2492.24 617.889 2524.42 617.883L2723.1 617.921C2723.24 631.111 2724.59 704.553 2721.67 712.153C2687.12 711.413 2650.46 712.036 2615.67 712.039L2414.47 712.05C2381.52 712.048 2346.59 712.689 2313.9 711.751C2313.03 699.626 2313.62 680.793 2313.61 668.186L2313.56 584.168C2313.55 562.428 2313.05 537.212 2314.11 515.383C2314.23 512.801 2315.41 512.542 2317.39 511.221Z" fill="black"/>
<path d="M1257.81 443.375L1356.64 443.479C1356.84 491.626 1356.74 539.773 1356.37 587.918C1391.83 589.58 1437.56 588.261 1473.79 588.236C1474.86 599.225 1474.31 624.689 1474.27 636.509C1474.19 652.1 1475.01 677.051 1473.59 691.994C1435.27 692.663 1394.88 691.998 1356.39 691.993L1140.26 692.137C1139.49 681.849 1139.96 665.742 1139.96 655.113C1139.89 632.799 1139.95 610.485 1140.15 588.171L1257.77 588.111C1256.57 544.604 1256.76 486.951 1257.81 443.375Z" fill="black"/>
<path d="M1644.06 313.135C1688.23 314.667 1737.69 313.044 1782.36 313.411C1891.85 314.309 2002.16 312.29 2111.61 313.524C2112.15 338.182 2111.44 363.122 2111.77 387.807C2111.89 396.292 2112.04 405.751 2111.26 414.163C2045.95 413.026 1977.2 414.074 1911.65 414.068L1643.07 414.255C1643.47 387.716 1642.73 361.157 1642.99 334.616C1643.05 327.482 1642.57 320.149 1644.06 313.135Z" fill="black"/>
<path d="M3282.41 588.118C3323 589.045 3366.69 588.246 3407.48 588.251L3614.11 588.098C3614.7 607.338 3614.1 628.283 3614.35 647.68C3614.5 659.147 3614.91 681.426 3613.57 692.197C3601.2 691.762 3588.23 691.918 3575.83 692.004C3478.07 692.678 3380.05 690.964 3282.3 692.208C3281.95 687.089 3281.93 681.449 3282.04 676.311C3282.6 647.163 3280.99 617.163 3282.41 588.118Z" fill="black"/>
<path d="M2266.16 120.946H2584.3C2583.86 131.688 2585.64 192.697 2583 198.54C2549.32 199.519 2510.82 198.602 2476.82 198.606L2266.21 198.628C2266.38 172.733 2266.37 146.839 2266.16 120.946Z" fill="black"/>
<path d="M2313.93 13.5406C2338.54 14.2361 2365.93 13.6503 2390.71 13.6523L2535.89 13.5378L2535.87 91.8247C2530.97 93.426 2482.09 92.5502 2473.58 92.5432L2313.24 92.5431C2313.14 79.1781 2312.1 22.8898 2313.93 13.5406Z" fill="black"/>
<path d="M863.835 0H961.433C963.179 9.37078 962.269 57.4133 962.233 70.2731L962.211 215.827L962.241 540.067C962.244 595.876 963.46 656.729 961.948 712.229C930.34 710.949 895.011 712.463 862.682 711.837C861.472 701.498 862.211 667.395 862.21 655.713L862.196 540.163L862.179 150.514C862.179 133.523 860.385 9.56645 863.835 0Z" fill="black"/>
<path d="M1503.38 0H1600.13C1602.17 10.3647 1601.15 59.2593 1601.12 72.282V222.032L1601.16 543.439C1601.18 596.281 1602.88 660.007 1600.79 712.188C1569.57 711.344 1534.09 711.908 1502.73 712.195C1501.66 698.284 1502.34 674.669 1502.34 660.187L1502.35 562.931L1502.39 258.143L1502.4 79.5983C1502.39 64.5685 1501.18 11.624 1503.38 0Z" fill="black"/>
<path d="M3645.41 0H3742.12C3743.89 7.53827 3743.23 50.5831 3743.22 60.7313L3743.11 199.498L3743.15 535.199C3743.16 592.874 3744.25 654.753 3742.88 712.12L3644.66 712.141C3643.66 698.676 3644.32 675.075 3644.32 660.939V562.645L3644.36 257.328L3644.37 79.6822C3644.37 64.7292 3643.16 11.5128 3645.41 0Z" fill="black"/>
<path d="M2618.53 0H2715.76C2719.94 13.0131 2717.08 163.771 2716.99 187.711C2727.08 188.491 2749.27 185.723 2757.33 189.667C2761.02 198.24 2759.59 277.041 2759.01 291.335C2747.01 292.047 2729.4 291.536 2716.98 291.574C2717.25 302.2 2717.24 313.215 2717.1 323.865C2716.24 391.678 2718.42 460.107 2716.9 527.859C2692.73 529.627 2642.99 528.849 2617.84 528.087C2616.06 496.75 2617.63 448.409 2617.63 416.054L2617.64 192.329L2617.57 63.4284C2617.55 49.8455 2616.69 11.2251 2618.53 0Z" fill="black"/>
<path d="M4759.96 0H4857.83C4861.72 11.8404 4859.13 116.03 4859.02 136.991C4867.53 136.868 4894.29 135.482 4900.34 138.948C4903.95 147.374 4903.64 227.618 4899.85 238.086C4896.21 241.557 4866.08 240.093 4859.21 240.01C4858.18 271.57 4860.04 305.929 4859.25 337.711C4858.95 349.924 4860.18 370.735 4857.81 381.899C4851.05 385.088 4772.23 383.69 4759.18 383.374C4757.98 360.832 4759.03 326.58 4759.03 303.255L4759.06 144.515L4758.95 50.6675C4758.94 38.4526 4758.23 10.9162 4759.96 0Z" fill="black"/>
</svg>
