<svg width="3983" height="763" viewBox="0 0 3983 763" fill="none" xmlns="http://www.w3.org/2000/svg">
<rect x="9.80078" y="638" width="3973" height="125" fill="#22CD6D"/>
<path d="M561.311 16.1936C580.662 15.1221 608.549 15.9597 628.419 15.9572L758.16 16.0261C760.924 31.0686 765.797 48.6506 769.11 63.9423L803.804 218.578L880.606 562.095C884.267 578.338 911.487 693.78 910.517 699.574C906.828 702.848 770.029 700.986 751.937 701.189C748.539 692.343 744.004 666.652 742.319 656.109C739.211 636.651 734.049 613.276 731.61 594.083C731.341 589.389 728.024 578.192 727.346 569.028C712.06 568.301 692.608 568.796 677.022 568.789C648.875 568.696 620.727 568.751 592.581 568.955C588.351 608.154 576.156 649.715 571.413 689.289C570.944 693.203 569.423 697.549 567.858 701.197C531.856 699.864 492.317 701.943 456.068 701.062C444.25 700.774 420.929 701.955 410.161 700.535C407.487 694.754 421.935 637.904 424.439 627.111L445.853 531.635L522.826 187.497C535.494 131.287 549.694 72.4395 561.311 16.1936ZM663.501 420.178C670.555 420.236 693.76 421.205 698.593 418.501C699.315 408.547 686.458 349.233 684.266 335.456C678.566 299.64 670.096 261.303 664.305 225.271C664.196 224.598 663.484 223.33 662.982 222.945C661.492 221.803 658.46 221.517 656.735 221.458C654.215 226.671 620.826 412.708 621.386 418.826C627.753 421.23 655.031 420.256 663.501 420.178Z" fill="black"/>
<path d="M833.455 15.8499C868.625 16.5501 904.954 15.7166 940.241 15.9619C1038.49 16.6448 1137.35 15.0311 1235.54 16.0502C1235.96 21.3336 1236.3 46.5141 1235.92 50.906C1234.74 64.918 1238.58 158.212 1233.46 164.622C1226.31 166.136 1208.81 165.193 1200.75 165.381C1174.09 166.002 1144.6 164.204 1118.28 165.661C1117.36 178.669 1118 199.669 1118 213.124L1118.01 302.319L1118.02 583.5C1118.04 622.19 1118.6 662.422 1117.81 700.988C1065.56 702.973 1007.47 700.05 954.151 701.273C952.114 647.422 956.529 172.81 952.265 165.757C939.361 164.7 921.037 165.257 907.482 165.259C882.678 165.182 857.873 165.265 833.069 165.506C831.657 142.265 833.44 108.605 832.875 84.3388C832.525 69.3234 832.059 28.8939 833.455 15.8499Z" fill="black"/>
<path d="M3117.33 16.0684C3118.2 16.0038 3119.07 15.9638 3119.95 15.9483C3161.15 15.4826 3203.19 15.9049 3244.34 15.9162C3321.68 15.9376 3395.95 7.5803 3455.7 67.9568C3503.16 115.916 3516.71 181.218 3516.71 246.3C3516.7 310.09 3502.61 377.688 3455.69 424.151C3406.37 472.987 3351.88 474.984 3287.75 474.855C3284.93 474.7 3284.45 474.634 3281.77 475.562C3278.87 479.647 3281.74 676.704 3280.38 700.747C3279.58 700.814 3278.77 700.871 3277.97 700.919C3273.36 701.195 3250.1 701.325 3246.85 701.05C3232.68 699.85 3122.4 703.551 3117.12 698.891C3115.58 693.233 3116.27 655.273 3116.27 647.315L3116.28 523.087L3116.26 190.994C3116.25 135.373 3116.11 79.6621 3116.24 24.0364C3116.25 21.0352 3116.5 18.9834 3117.33 16.0684ZM3335.88 311.313C3354.08 290.918 3353.69 254.742 3352.54 228.814C3351.75 210.805 3345.77 187.655 3331.92 175.024C3318.65 162.923 3299.08 165.617 3282.15 165.094C3281.42 166.917 3280.89 168.69 3280.87 170.671C3280.5 218.281 3280.68 265.909 3280.8 313.523C3281.12 315.461 3280.44 323.264 3282.46 323.814C3291.97 326.398 3303.86 325.039 3313.63 324.127C3320.23 323.511 3332.73 317.135 3335.88 311.313Z" fill="black"/>
<path d="M3658.69 16.0794C3662.58 30.5602 3667.45 44.9404 3671.65 59.3755L3708.98 185.893C3712.83 198.781 3725.23 246.426 3730.68 256.368L3732.07 256.585C3735.44 250.12 3736.04 241.729 3738.33 234.697C3752.74 189.214 3766.38 143.487 3779.23 97.5366C3782.4 86.4518 3799.9 22.0836 3804.86 16.8731C3811.36 15.2886 3847.96 15.9013 3857.17 15.9091C3893.58 16.0543 3929.99 16.013 3966.4 15.785C3970.38 15.7828 3975.67 15.547 3978.61 18.4844C3980.82 23.6335 3971.63 39.5209 3969.25 45.1412L3945.33 102.158C3914.14 176.617 3879.69 254.73 3850.11 329.447C3842.21 339.908 3822.59 399.106 3814.78 413.433C3811.38 419.677 3812.86 478.472 3812.86 490.091L3812.84 625.979C3812.84 648.337 3813.75 679.286 3812.4 701.097C3757.99 700.744 3703.16 701.661 3648.81 700.868C3647.78 678.164 3648.59 649.414 3648.59 626.348L3648.52 489.232C3648.51 466.381 3649.88 437.626 3647.45 415.393C3647.03 411.528 3637.12 388.746 3635.1 383.985C3627.24 365.673 3619.48 347.319 3611.83 328.922L3510.97 88.5055L3491.15 41.7493C3488.8 36.2914 3481.69 20.8444 3480.8 16.0163C3537.71 14.7189 3601.4 15.7024 3658.69 16.0794Z" fill="black"/>
<path d="M1929.61 16.2327C1946.95 15.3693 1969.2 15.9603 1986.87 15.9635L2093.2 15.8535C2094.26 32.8696 2093.64 54.9714 2093.63 72.2559L2093.6 169.962V476.888L2093.57 630.542C2093.59 643.636 2094.64 690.886 2092.81 701.126C2039.15 700.28 1982.89 702.467 1929.61 700.767C1928.48 675.365 1929.51 646.153 1929.29 620.438C1928.77 559.465 1930.02 497.966 1929.13 437.017L1818.82 436.996C1817.5 453.966 1818.5 487.081 1818.51 505.215L1818.57 638.567C1818.57 649.662 1819.32 691.467 1817.15 699.366C1816.76 699.561 1816.38 699.744 1815.97 699.903C1809.61 702.405 1680.56 701.666 1665.85 701.043C1662.29 700.892 1658.55 700.768 1655.26 699.288C1651.43 688.371 1653.82 547.086 1653.82 524.482L1653.84 200.904C1653.84 181.621 1651.68 25.9978 1655.01 16.0031C1690.08 15.4454 1726.05 16.2034 1761.19 15.8912C1770.88 15.8051 1809.76 15.3041 1817.39 17.1268C1819.11 24.5289 1818.65 84.94 1818.56 96.5438C1818.1 157.557 1819.25 219.436 1818.3 280.365L1929.51 280.39C1929 269.513 1929.01 256.645 1929.3 245.648C1931.31 170.029 1926.46 91.5745 1929.61 16.2327Z" fill="black"/>
<path d="M2793.95 0H2822.76C2833.78 4.62845 2842.74 3.20525 2854.04 4.79049C2941.66 17.0767 3012.43 83.5471 3043.58 165.861C3111.12 344.323 3089 671.057 2855.45 711.545C2846.94 713.021 2820.49 713.69 2814.86 717H2801.42C2795.48 713.722 2768.25 712.825 2759.24 711.275C2598.88 683.691 2539.79 514.442 2540.59 370.156C2540.83 327.25 2541.35 290.4 2549.41 247.63C2555.56 213.943 2565.83 181.141 2580 149.966C2614.77 73.052 2680.41 16.1249 2764.97 4.61374C2775.9 3.12537 2783.09 4.0921 2793.95 0ZM2815.25 565.464C2931.61 562.474 2922.62 301.292 2894.4 225.201C2878.49 182.312 2855.21 149.627 2805.01 151.062C2803.73 151.107 2802.46 151.216 2801.2 151.388C2703.82 155.96 2701.23 326.849 2705.22 396.514C2708.93 461.316 2727.2 571.224 2813.83 565.584C2814.3 565.554 2814.78 565.514 2815.25 565.464Z" fill="black"/>
<path d="M2395.24 0H2425.7C2434.48 3.81225 2437.64 3.07839 2446.55 4.06032C2464.95 6.0883 2512.02 17.0753 2524.08 30.8634C2526.85 38.9949 2525.64 99.2709 2525.48 110.799C2525.32 121.376 2526.63 181.121 2524.6 187.364C2523.76 187.766 2523.47 188.156 2522.55 187.832C2514.5 185.008 2507.1 177.166 2499.22 173.127C2462.22 154.153 2412.83 140.843 2372.96 159.003C2343.19 172.562 2325.93 199.454 2315.1 229.297C2290.83 296.116 2292.13 437.564 2322.76 501.893C2335.5 528.641 2355.08 551.056 2383.65 561.166C2420.67 574.263 2461.74 563.843 2495.77 547.431C2506.35 542.328 2517.9 531.569 2529.03 528.864L2530.11 529.623C2532.98 551.794 2529.44 583.957 2530.56 607.253C2531.66 630.001 2529.96 656.383 2530.72 679.158C2531.35 697.784 2470.27 709.199 2455.46 711.728C2447.91 713.018 2422.12 713.897 2418.03 717H2397.25C2385.93 712.739 2374.09 714.109 2362.71 712.503C2351.48 710.917 2336.9 708.246 2325.91 705.271C2266.87 689.291 2216.74 650.232 2186.81 596.89C2125.26 489.682 2122.34 316.634 2153.76 198.841C2178.14 108.527 2238.87 32.9567 2332.56 10.5946C2343.36 8.01623 2391.81 2.04699 2395.24 0Z" fill="black"/>
<path d="M263.077 0H292.759L293.141 0.178195C303.402 4.88672 393.124 14.0269 392.24 34.276C391.527 50.6327 394.988 182.603 391.382 187.531C389.025 187.89 361.397 170.027 354.546 167.173C162.49 87.1738 154.971 310.08 171.458 436.662C188.433 569.197 286.663 601.727 391.782 529.864C393.735 528.529 394.867 528.427 397.055 528.546C399.113 534.49 397.359 659.226 397.838 675.636C397.891 677.47 396.782 686.71 395.591 687.612C389.056 692.559 364.95 701.904 357.764 704.101C343.538 708.449 331.254 710.766 317.123 712.653C308.04 713.866 299.655 713.452 290.644 714.993C288.282 715.397 287.425 715.424 285.653 717H264.195C254.394 712.857 239.474 713.888 228.9 712.375C213.244 710.134 198.693 707.078 183.662 702.464C120.973 683.223 72.4625 637.288 43.7769 577.82C-8.32994 469.797 -9.56506 299.185 24.803 186.067C51.1278 100.909 111.129 31.7257 199.987 10.5743C211.841 7.75259 258.421 2.38652 262.782 0.153738L263.077 0Z" fill="black"/>
<path d="M1479.15 0H1509.75C1519.26 4.95141 1533.03 4.09798 1543.74 6.17639C1561.55 9.63303 1578.1 14.4707 1594.57 22.1612C1598.57 24.0274 1606.6 27.6958 1608.19 32.1579C1609.8 36.6694 1610.25 179.55 1608.44 186.934L1607.1 188.155C1598.74 185.654 1590.09 176.826 1581.98 172.639C1543.59 152.835 1491.32 140.035 1451.04 161.728C1423.21 176.718 1406.05 205.467 1397.28 234.979C1375.77 307.399 1373.88 442.493 1410.48 509.855C1423.77 534.308 1445.13 555.141 1472.4 563.065C1508.22 573.475 1552.74 562.44 1584.49 544.768C1593.42 539.799 1603.47 531.078 1613.02 528.159C1616.54 533.627 1613.94 667.137 1613.49 683.655C1613.18 695.359 1550.49 711.038 1538.68 712.198C1532.48 712.808 1506.74 713.471 1501.96 717H1480.56C1469.9 712.475 1456.72 713.822 1445.39 712.374C1432.51 710.727 1419.16 708.038 1406.65 704.453C1344.48 686.628 1297.42 645.59 1266.38 589.48C1208.44 484.745 1206.92 304.837 1239.42 192.065C1264.39 105.392 1326.04 31.9065 1416.16 10.5788C1426.14 8.21897 1436.55 6.11308 1446.7 4.69376C1456.66 3.30152 1470.02 5.12584 1478.89 0.151068L1479.15 0Z" fill="black"/>
</svg>
